<svg xmlns="http://www.w3.org/2000/svg" width="76" height="70" viewBox="0 0 76 70" fill="none">
<path d="M40.0638 8.93659e-06C38.3462 -0.000904736 36.6862 0.619338 35.39 1.74632C34.0939 2.87331 33.249 4.431 33.0112 6.13206C32.7734 7.83312 33.1588 9.56279 34.0962 11.002C35.0337 12.4412 36.46 13.4929 38.112 13.9629V31.7285H42.1315V13.9424C43.7687 13.4487 45.1736 12.3825 46.0896 10.9386C47.0057 9.49465 47.3717 7.76938 47.1208 6.07791C46.87 4.38643 46.019 2.84165 44.7233 1.72575C43.4276 0.609846 41.7738 -0.00269847 40.0638 8.93659e-06ZM43.944 7.82354C43.7803 8.71811 43.3116 9.52828 42.6176 10.1161C41.9236 10.7038 41.0474 11.0328 40.138 11.0471C39.2287 11.0613 38.3426 10.7599 37.6306 10.1941C36.9186 9.62833 36.4247 8.83323 36.2331 7.94421C36.0415 7.0552 36.164 6.12725 36.5798 5.31843C36.9956 4.5096 37.6789 3.86993 38.5133 3.50834C39.3478 3.14676 40.2818 3.08564 41.1562 3.33539C42.0307 3.58513 42.7915 4.13031 43.3092 4.87805C43.6045 5.30267 43.8126 5.78163 43.9216 6.28722C44.0305 6.79281 44.0381 7.31498 43.944 7.82354Z" fill="#96AAB8"/>
<path d="M14.1267 29.3726C13.8417 27.7855 13.0263 26.3422 11.8141 25.2789C10.6018 24.2156 9.06457 23.5953 7.45387 23.5196C5.84318 23.4438 4.25447 23.9171 2.94781 24.8619C1.64114 25.8068 0.693914 27.1672 0.261173 28.7205C-0.171568 30.2738 -0.0641884 31.928 0.565735 33.4124C1.19566 34.8967 2.31081 36.1233 3.72866 36.8912C5.14651 37.6592 6.78306 37.9231 8.37045 37.6398C9.95783 37.3564 11.402 36.5426 12.4666 35.3315L28.0409 42.1785L29.6626 38.4897L14.1638 31.675C14.2742 30.9105 14.2616 30.1332 14.1267 29.3726ZM10.3467 32.8726C9.98297 33.3937 9.49865 33.8192 8.935 34.1128C8.37135 34.4064 7.74508 34.5594 7.10955 34.5588C6.23047 34.5565 5.37752 34.2596 4.687 33.7156C3.99648 33.1716 3.50824 32.4118 3.30029 31.5577C3.09234 30.7035 3.17669 29.8044 3.53986 29.0038C3.90303 28.2033 4.52406 27.5475 5.30372 27.1414C6.08337 26.7353 6.97664 26.6023 7.84081 26.7635C8.70497 26.9248 9.49014 27.3711 10.0709 28.031C10.6516 28.691 10.9943 29.5265 11.0443 30.4042C11.0943 31.2819 10.8487 32.1509 10.3467 32.8726Z" fill="#96AAB8"/>
<path d="M75.4506 34.3529C75.2917 32.7146 74.5697 31.1821 73.4076 30.0164C72.2456 28.8506 70.7153 28.1238 69.0776 27.9597C67.4398 27.7955 65.7958 28.2042 64.4255 29.1161C63.0552 30.0281 62.0434 31.3868 61.5625 32.9609C61.0816 34.5351 61.1612 36.2273 61.7878 37.7493C62.4145 39.2713 63.5494 40.5291 64.9992 41.3083C66.4491 42.0875 68.1242 42.34 69.7393 42.0228C71.3545 41.7055 72.8097 40.8382 73.8571 39.5685C74.4549 38.848 74.9036 38.0159 75.1771 37.1206C75.4507 36.2252 75.5437 35.2844 75.4506 34.3529ZM71.4016 37.5379C70.822 38.2419 70.0161 38.7231 69.1214 38.8996C68.2266 39.076 67.2984 38.9367 66.4949 38.5053C65.6914 38.074 65.0623 37.3774 64.7149 36.5342C64.3675 35.691 64.3232 34.7535 64.5896 33.8813C64.856 33.0091 65.4167 32.2563 66.176 31.7512C66.9353 31.2461 67.8462 31.0199 68.7536 31.1113C69.661 31.2026 70.5086 31.6058 71.152 32.252C71.7954 32.8983 72.1948 33.7477 72.2821 34.6555C72.3319 35.1707 72.2796 35.6906 72.128 36.1854C71.9764 36.6803 71.7287 37.1404 71.3989 37.5392L71.4016 37.5379Z" fill="#96AAB8"/>
<path d="M59.6159 35.8778L60.8175 39.7244L59.0332 40.2734L57.8315 36.4303L59.6159 35.8778Z" fill="#96AAB8"/>
<path d="M52.0723 42.4386L53.1175 42.1181V42.1229L53.8566 41.8916L52.6549 38.0485L50.8706 38.5975L52.0723 42.4386Z" fill="#96AAB8"/>
<path d="M55.4666 41.4111L55.9216 41.2739V41.2814L57.2509 40.8697L56.0492 37.0217L54.2615 37.5707L55.4666 41.4111Z" fill="#96AAB8"/>
<path d="M33.8042 48.6706C34.3811 49.8166 35.1755 50.8394 36.1431 51.6819C37.2002 52.6429 38.581 53.1693 40.0095 53.1561C40.0145 53.1574 40.0197 53.1574 40.0246 53.1561L40.2257 53.1616C41.6238 53.1562 42.9697 52.6296 44.0002 51.6847C44.9689 50.8413 45.764 49.8173 46.3411 48.6699C47.3922 46.5471 47.9585 44.2174 47.9991 41.849L48.0026 41.5917C48.0128 41.3257 48.0073 41.0595 47.9861 40.7942C47.8926 39.5385 47.4257 38.3394 46.6455 37.3511C45.8653 36.3627 44.8074 35.6302 43.6077 35.2477C41.319 34.4278 38.8167 34.4278 36.5281 35.2477C35.3292 35.6313 34.2722 36.3641 33.4926 37.3523C32.713 38.3405 32.2463 39.539 32.1524 40.7942C32.1317 41.0588 32.1265 41.3244 32.1366 41.5896L32.14 41.8566C32.1866 44.2227 32.7549 46.5494 33.8042 48.6706Z" fill="#112B36"/>
<path d="M54.8481 58.7945C54.2384 58.3427 53.5593 57.9929 52.8374 57.7589C52.8374 57.7589 47.5153 55.7406 47.5071 55.7358C46.9827 55.4768 46.3994 55.3606 45.8158 55.3986C45.2323 55.4367 44.669 55.6278 44.1828 55.9527L43.9638 56.1297C43.6948 56.3903 43.4638 56.6874 43.2776 57.0123C43.2213 57.0994 43.1678 57.19 43.1074 57.2744L40.0727 61.541L39.6554 60.9542C38.6104 59.4902 37.5689 58.0238 36.5308 56.5552C36.4622 56.453 36.3867 56.3576 36.294 56.243C35.9528 55.8181 35.4944 55.5026 34.9757 55.3357L34.5248 55.2561L32.8352 55.6789L27.3533 57.7438C26.6159 57.9794 25.9223 58.3343 25.2999 58.7945C24.7581 59.159 24.3139 59.6506 24.006 60.2264C23.698 60.8022 23.5358 61.4446 23.5334 62.0976L23.5417 66.3902C23.5912 66.8616 23.7067 67.3236 23.8848 67.7628C24.1295 68.4079 24.5611 68.9653 25.1243 69.3638C25.6875 69.7624 26.3567 69.9839 27.0465 70H53.1119C53.7971 69.9828 54.4619 69.763 55.0225 69.3686C55.583 68.9741 56.0143 68.4225 56.2619 67.7834C56.4593 67.2923 56.5799 66.7738 56.6194 66.2461L56.6119 62.2122C56.6253 61.5408 56.4711 60.8766 56.1631 60.2799C55.8551 59.6831 55.4032 59.1726 54.8481 58.7945Z" fill="#112B36"/>
</svg>